<svg width="32" height="40" viewBox="0 0 32 40" fill="none" xmlns="http://www.w3.org/2000/svg">
<path d="M4 40C2.9 40 1.95833 39.6083 1.175 38.825C0.391667 38.0417 0 37.1 0 36V12C0 10.9 0.391667 9.95833 1.175 9.175C1.95833 8.39167 2.9 8 4 8H8C8 5.8 8.78333 3.91667 10.35 2.35C11.9167 0.783333 13.8 0 16 0C18.2 0 20.0833 0.783333 21.65 2.35C23.2167 3.91667 24 5.8 24 8H28C29.1 8 30.0417 8.39167 30.825 9.175C31.6083 9.95833 32 10.9 32 12V36C32 37.1 31.6083 38.0417 30.825 38.825C30.0417 39.6083 29.1 40 28 40H4ZM4 36H28V12H24V16C24 16.5667 23.8083 17.0417 23.425 17.425C23.0417 17.8083 22.5667 18 22 18C21.4333 18 20.9583 17.8083 20.575 17.425C20.1917 17.0417 20 16.5667 20 16V12H12V16C12 16.5667 11.8083 17.0417 11.425 17.425C11.0417 17.8083 10.5667 18 10 18C9.43333 18 8.95833 17.8083 8.575 17.425C8.19167 17.0417 8 16.5667 8 16V12H4V36ZM12 8H20C20 6.9 19.6083 5.95833 18.825 5.175C18.0417 4.39167 17.1 4 16 4C14.9 4 13.9583 4.39167 13.175 5.175C12.3917 5.95833 12 6.9 12 8Z" fill="#E8EAED"/>
</svg>
